<?xml version="1.0" encoding="UTF-8" standalone="no"?>
<!DOCTYPE svg PUBLIC "-//W3C//DTD SVG 1.1//EN" "http://www.w3.org/Graphics/SVG/1.1/DTD/svg11.dtd">
<svg width="100%" height="100%" viewBox="0 0 580 129" version="1.1" xmlns="http://www.w3.org/2000/svg" xmlns:xlink="http://www.w3.org/1999/xlink" xml:space="preserve" xmlns:serif="http://www.serif.com/" style="fill-rule:evenodd;clip-rule:evenodd;stroke-linejoin:round;stroke-miterlimit:1.41421;">
    <g transform="matrix(1,0,0,1,0,23)">
        <path d="M0,-23L148.41,-23L134.409,0L13.239,0L0,-23Z" style="fill:rgb(253,253,253);fill-rule:nonzero;"/>
    </g>
    <g transform="matrix(1,0,0,1,21.4893,58.0005)">
        <path d="M0,-20.667L104.577,-20.667L92.548,0L11.896,0L0,-20.667Z" style="fill:rgb(253,253,253);fill-rule:nonzero;"/>
    </g>
    <g transform="matrix(1,0,0,1,41.8277,127.667)">
        <path d="M0,-55L24.306,-55L43.878,-20.995L31.658,0L0,-55Z" style="fill:rgb(255,219,0);fill-rule:nonzero;"/>
    </g>
    <g transform="matrix(1.77457,0,0,1.77457,-407.89,-674.461)">
        <g transform="matrix(73.5754,0,0,73.5754,318.666,443.057)">
            <path d="M0.315,-0.454C0.313,-0.445 0.312,-0.421 0.312,-0.383L0.312,-0.34L0.194,-0.34L0.194,0L0.074,0L0.074,-0.34L0.002,-0.34C0.003,-0.361 0.003,-0.38 0.003,-0.397L0.004,-0.449L0.004,-0.454L0.074,-0.454L0.074,-0.484C0.074,-0.563 0.092,-0.625 0.129,-0.673C0.167,-0.722 0.219,-0.747 0.286,-0.747C0.314,-0.747 0.333,-0.745 0.342,-0.741L0.343,-0.618L0.342,-0.616C0.329,-0.628 0.314,-0.634 0.295,-0.634C0.276,-0.634 0.26,-0.631 0.249,-0.625C0.237,-0.618 0.227,-0.609 0.219,-0.598C0.202,-0.574 0.194,-0.542 0.194,-0.501L0.194,-0.454L0.315,-0.454Z" style="fill:rgb(253,253,253);fill-rule:nonzero;"/>
        </g>
        <g transform="matrix(73.5754,0,0,73.5754,343.239,443.057)">
            <path d="M0.035,-0.252C0.035,-0.288 0.041,-0.323 0.053,-0.355C0.065,-0.388 0.083,-0.417 0.105,-0.441C0.155,-0.494 0.22,-0.52 0.299,-0.52C0.378,-0.52 0.441,-0.495 0.488,-0.445C0.532,-0.398 0.555,-0.336 0.555,-0.26C0.555,-0.184 0.532,-0.122 0.486,-0.072C0.437,-0.019 0.373,0.007 0.293,0.007C0.21,0.007 0.146,-0.019 0.099,-0.07C0.056,-0.118 0.035,-0.178 0.035,-0.252ZM0.153,-0.255C0.153,-0.235 0.157,-0.215 0.164,-0.196C0.17,-0.177 0.18,-0.16 0.193,-0.146C0.22,-0.117 0.255,-0.102 0.299,-0.102C0.34,-0.102 0.372,-0.117 0.396,-0.146C0.418,-0.174 0.43,-0.21 0.43,-0.255C0.43,-0.3 0.418,-0.337 0.395,-0.365C0.369,-0.395 0.335,-0.41 0.292,-0.41C0.247,-0.41 0.213,-0.394 0.188,-0.362C0.165,-0.333 0.153,-0.297 0.153,-0.255Z" style="fill:rgb(253,253,253);fill-rule:nonzero;"/>
        </g>
        <g transform="matrix(73.5754,0,0,73.5754,386.242,443.057)">
            <path d="M0.377,-0.044C0.336,-0.01 0.29,0.007 0.241,0.007C0.188,0.007 0.147,-0.01 0.117,-0.046C0.089,-0.08 0.074,-0.128 0.074,-0.188L0.074,-0.382C0.074,-0.447 0.073,-0.484 0.07,-0.494C0.067,-0.503 0.065,-0.51 0.064,-0.512C0.079,-0.511 0.095,-0.51 0.111,-0.51L0.151,-0.51C0.162,-0.51 0.176,-0.511 0.194,-0.512L0.194,-0.229C0.194,-0.162 0.212,-0.123 0.249,-0.112C0.26,-0.109 0.272,-0.107 0.285,-0.107C0.323,-0.107 0.354,-0.121 0.377,-0.149L0.377,-0.51L0.499,-0.51L0.499,-0.063C0.499,-0.034 0.5,-0.013 0.502,0L0.377,0L0.377,-0.044Z" style="fill:rgb(253,253,253);fill-rule:nonzero;"/>
        </g>
        <g transform="matrix(73.5754,0,0,73.5754,429.101,443.057)">
            <path d="M0.2,-0.063C0.2,-0.034 0.201,-0.013 0.204,0L0.082,0L0.082,-0.51L0.2,-0.51L0.2,-0.467C0.243,-0.502 0.289,-0.52 0.338,-0.52C0.391,-0.52 0.434,-0.502 0.466,-0.466C0.498,-0.429 0.514,-0.382 0.514,-0.322L0.514,-0.128C0.514,-0.073 0.514,-0.04 0.516,-0.029C0.518,-0.018 0.52,-0.011 0.523,-0.007C0.525,-0.004 0.528,-0.001 0.53,0.001L0.529,0.003C0.502,0.001 0.483,0 0.471,0L0.437,0C0.427,0 0.413,0 0.395,0.001L0.395,-0.265C0.395,-0.36 0.366,-0.408 0.308,-0.408C0.265,-0.408 0.229,-0.386 0.2,-0.341L0.2,-0.063Z" style="fill:rgb(253,253,253);fill-rule:nonzero;"/>
        </g>
        <g transform="matrix(73.5754,0,0,73.5754,472.104,443.057)">
            <rect x="0.106" y="-0.649" width="0.125" height="0.649" style="fill:rgb(253,253,253);fill-rule:nonzero;"/>
        </g>
        <g transform="matrix(73.5754,0,0,73.5754,496.856,443.057)">
            <path d="M0.052,-0.315C0.052,-0.365 0.059,-0.41 0.073,-0.453C0.088,-0.496 0.108,-0.533 0.134,-0.563C0.19,-0.629 0.26,-0.662 0.346,-0.662C0.427,-0.662 0.493,-0.631 0.542,-0.569C0.59,-0.509 0.614,-0.43 0.614,-0.332C0.614,-0.22 0.585,-0.133 0.527,-0.071C0.475,-0.016 0.409,0.012 0.328,0.012C0.249,0.012 0.184,-0.018 0.131,-0.079C0.078,-0.14 0.052,-0.219 0.052,-0.315ZM0.223,-0.161C0.237,-0.143 0.254,-0.128 0.274,-0.118C0.294,-0.108 0.314,-0.103 0.335,-0.103C0.355,-0.103 0.375,-0.107 0.393,-0.116C0.41,-0.125 0.427,-0.139 0.441,-0.157C0.473,-0.199 0.489,-0.253 0.489,-0.321C0.489,-0.39 0.476,-0.445 0.448,-0.486C0.421,-0.527 0.383,-0.547 0.336,-0.547C0.288,-0.547 0.25,-0.526 0.221,-0.484C0.191,-0.441 0.176,-0.386 0.176,-0.318C0.176,-0.254 0.192,-0.201 0.223,-0.161Z" style="fill:rgb(253,253,253);fill-rule:nonzero;"/>
        </g>
    </g>
</svg>
